# xmcd
#
# Track frame offsets: 
#        150
#        13847
#        29094
#        45504
#        58890
#        73928
#        88477
#        105363
#        117751
#        131212
#        147141
#        163661
#
# Disc length: 2403 seconds
#
# Revision: 0
# Processed by: cddbd v1.5.2PL0 Copyright (c) Steve Scherf et al.
# Submitted via: ExactAudioCopy v0.99pb4
#
DISCID=b209610c
DTITLE=Laura Lynn - Jij En Ik
DYEAR=2014
DGENRE=Chanson
TTITLE0=We Feesten Heel De Nacht
TTITLE1=Blijf In M'n Armen Vannacht
TTITLE2=Jij En Ik
TTITLE3=Een Beetje Meer (Duet Met Matthias Lens)
TTITLE4=Ik Wil Je Hier En Nu Voor Altijd
TTITLE5=Hoe Kan Ik Jou Geloven
TTITLE6=Morgen Is Alles Weer Heel Anders
TTITLE7=Blind Vertrouwen
TTITLE8=Dans
TTITLE9=Dat Gevoel
TTITLE10=Diep In Je Ogen (Duet Met Luc Steeno)
TTITLE11=Engelen Praten Niet
EXTD=
EXTT0=
EXTT1=
EXTT2=
EXTT3=
EXTT4=
EXTT5=
EXTT6=
EXTT7=
EXTT8=
EXTT9=
EXTT10=
EXTT11=
PLAYORDER=
